HIERARCHY
ROOT hip
{
	OFFSET 0.000000 0.000000 0.000000 
	CHANNELS 6 Xposition Yposition Zposition Xrotation Zrotation Yrotation
	JOINT abdomen
	{
		OFFSET 0.000000 3.402643 0.000000 
		CHANNELS 3 Xrotation Zrotation Yrotation
		JOINT chest
		{
			OFFSET 0.000000 8.438565 -0.680529 
			CHANNELS 3 Xrotation Zrotation Yrotation
			JOINT neck
			{
				OFFSET 0.000000 10.207942 -0.272212 
				CHANNELS 3 Xrotation Zrotation Yrotation
				JOINT head
				{
					OFFSET 0.000000 3.130431 0.000000 
					CHANNELS 3 Xrotation Zrotation Yrotation
					End Site
					{
						OFFSET 0.000000 3.130435 0.000000 
					}
				}
			}
			JOINT lCollar
			{
				OFFSET 3.470700 6.669187 -0.816635 
				CHANNELS 3 Yrotation Zrotation Xrotation
				JOINT lShldr
				{
					OFFSET 3.198488 0.000000 0.000000 
					CHANNELS 3 Zrotation Yrotation Xrotation
					JOINT lForeArm
					{
						OFFSET 10.139888 0.000000 0.000000 
						CHANNELS 3 Yrotation Zrotation Xrotation
						JOINT lHand
						{
							OFFSET 8.370511 0.000000 0.000000 
							CHANNELS 3 Zrotation Yrotation Xrotation
							End Site
							{
								OFFSET 4.083176 0.000000 0.000000 
							}
						}
					}
				}
			}
			JOINT rCollar
			{
				OFFSET -3.470700 6.669187 -0.816635 
				CHANNELS 3 Yrotation Zrotation Xrotation
				JOINT rShldr
				{
					OFFSET -3.198488 0.000000 0.000000 
					CHANNELS 3 Zrotation Yrotation Xrotation
					JOINT rForeArm
					{
						OFFSET -10.139888 0.000000 0.000000 
						CHANNELS 3 Yrotation Zrotation Xrotation
						JOINT rHand
						{
							OFFSET -8.370511 0.000000 0.000000 
							CHANNELS 3 Zrotation Yrotation Xrotation
							End Site
							{
								OFFSET -4.083176 0.000000 0.000000 
							}
						}
					}
				}
			}
		}
	}
	JOINT lThigh
	{
		OFFSET 5.308129 -1.633274 1.361059 
		CHANNELS 3 Xrotation Zrotation Yrotation
		JOINT lShin
		{
			OFFSET -2.041588 -20.007561 0.000000 
			CHANNELS 3 Xrotation Zrotation Yrotation
			JOINT lFoot
			{
				OFFSET 0.000000 -19.190928 -1.224953 
				CHANNELS 3 Xrotation Yrotation Zrotation
				End Site
				{
					OFFSET 0.000000 -2.449906 4.627600 
				}
			}
		}
	}
	JOINT rThigh
	{
		OFFSET -5.308129 -1.633274 1.361059 
		CHANNELS 3 Xrotation Zrotation Yrotation
		JOINT rShin
		{
			OFFSET 2.041588 -20.007561 0.000000 
			CHANNELS 3 Xrotation Zrotation Yrotation
			JOINT rFoot
			{
				OFFSET 0.000000 -19.190928 -1.224953 
				CHANNELS 3 Xrotation Yrotation Zrotation
				End Site
				{
					OFFSET 0.000000 -2.449906 4.627600 
				}
			}
		}
	}
}
MOTION
Frames: 18
Frame Time: 0.016667
-0.327079 44.395943 -1.230712 9.580120 0.173330 -11.054700 -21.944000 1.931100 -1.746050 17.552700 3.598580 -0.578972 6.470810 14.473900 -18.200100 11.169000 10.539500 -8.450000 2.000000 -2.000000 0.000000 -90.141197 -2.440780 -144.828995 65.459503 -0.271633 0.124418 -179.897003 -179.876007 -7.488080 -2.000000 2.000000 0.000000 85.769897 4.593000 -156.074005 -45.537601 0.310611 0.097580 -0.056415 0.025353 -146.014008 -17.972885 0.313642 -0.819723 26.236931 2.447157 2.121883 -6.787142 20.009312 3.732460 -19.818787 2.297685 3.045105 31.756504 -2.267770 -2.538837 -17.305267 -9.079930 -4.453422 
-0.340190 44.395943 -1.213444 9.599650 0.163691 -11.056300 -21.954100 1.954690 -1.766530 17.572100 3.637650 -0.579772 6.541270 14.422000 -18.202400 11.198300 10.519400 -8.447040 2.000000 -2.000000 0.000000 -90.170601 -2.362920 -144.966003 65.459503 -0.271633 0.124418 -179.897003 -179.876007 -7.527150 -2.000000 2.000000 0.000000 85.848198 4.583510 -156.201004 -45.361801 0.310910 0.097285 -0.056394 0.025218 -145.964996 -17.925926 0.341021 -0.854788 26.130419 2.436446 2.131201 -6.730176 20.013884 3.733804 -19.813890 2.321129 3.014075 31.726954 -2.264850 -2.528804 -17.277449 -9.093183 -4.446789 
-0.353144 44.395943 -1.196044 9.619170 0.154053 -11.048100 -21.973900 1.972490 -1.774610 17.591600 3.666970 -0.580042 6.569970 14.372300 -18.198200 11.197800 10.500000 -8.459200 2.000000 -2.000000 0.000000 -90.200104 -2.275280 -145.093002 65.469299 -0.271612 0.124428 -179.897003 -179.865997 -7.536900 -2.000000 2.000000 0.000000 85.916603 4.583720 -156.298004 -45.225101 0.311142 0.097056 -0.056385 0.025164 -145.945007 -17.926344 0.359503 -0.866233 26.139471 2.440615 2.122216 -6.732898 20.035845 3.732836 -19.819656 2.342928 2.991587 31.727051 -2.263243 -2.528380 -17.287716 -9.090826 -4.457494 
-0.366578 44.395943 -1.178530 9.628940 0.144421 -11.030200 -21.983900 1.990440 -1.782300 17.601299 3.696260 -0.580921 6.639890 14.330500 -18.189899 11.207500 10.490100 -8.468390 2.000000 -2.000000 0.000000 -90.229500 -2.158300 -145.201004 65.508301 -0.271527 0.124467 -179.897003 -179.876007 -7.517380 -2.000000 2.000000 0.000000 85.965500 4.574060 -156.347000 -45.156700 0.311257 0.096941 -0.056389 0.025191 -145.955002 -17.955393 0.369668 -0.865110 26.215754 2.460875 2.115507 -6.791516 20.047461 3.717517 -19.798576 2.359471 3.001333 31.717875 -2.259766 -2.537361 -17.305988 -9.093904 -4.472374 
-0.380285 44.395294 -1.160590 9.638700 0.134789 -11.002500 -21.993900 2.002760 -1.777210 17.620800 3.715830 -0.580658 6.710370 14.308100 -18.177000 11.226800 10.470200 -8.467240 2.000000 -2.000000 0.000000 -90.229698 -2.031560 -145.309006 65.625504 -0.271272 0.124582 -179.897003 -179.876007 -7.439260 -2.000000 2.000000 0.000000 86.024101 4.564360 -156.376999 -45.127399 0.311307 0.096892 -0.056385 0.025164 -145.945007 -17.907644 0.396696 -0.890504 26.140387 2.434512 2.130607 -6.767259 20.044443 3.741733 -19.765274 2.379184 2.983100 31.708481 -2.259808 -2.547282 -17.352917 -9.094031 -4.464934 
-0.393530 44.394775 -1.141515 9.648460 0.115530 -10.956900 -22.003901 2.009460 -1.759310 17.650101 3.715930 -0.568994 6.803560 14.293100 -18.188299 11.266100 10.449900 -8.482090 2.000000 -2.000000 0.000000 -90.210197 -1.963280 -145.348007 65.713402 -0.271081 0.124669 -179.897003 -179.876007 -7.409960 -2.000000 2.000000 0.000000 86.082703 4.574170 -156.395996 -45.117599 0.311324 0.096875 -0.056372 0.025083 -145.916000 -17.907143 0.422573 -0.892995 26.148649 2.443298 2.112895 -6.790778 20.030991 3.731311 -19.750385 2.403124 2.952612 31.717899 -2.265646 -2.548637 -17.372847 -9.117328 -4.480120 
-0.405101 44.393875 -1.121518 9.658220 0.096272 -10.882000 -22.013700 2.007100 -1.737760 17.669701 3.706240 -0.557473 6.886990 14.288200 -18.199301 11.305500 10.439200 -8.485980 2.000000 -2.000000 0.000000 -90.180801 -1.963140 -145.279007 65.684097 -0.271145 0.124640 -179.897003 -179.876007 -7.468550 -2.000000 2.000000 0.000000 86.131599 4.564470 -156.425003 -45.137199 0.311291 0.096908 -0.056364 0.025029 -145.895996 -17.889511 0.437862 -0.924767 26.148884 2.445154 2.123037 -6.818515 19.999454 3.733324 -19.725351 2.414366 2.895677 31.707483 -2.263122 -2.528876 -17.402872 -9.157648 -4.518605 
-0.415699 44.392719 -1.101050 9.667980 0.067388 -10.808800 -22.023800 2.017220 -1.710730 17.699200 3.686830 -0.544844 6.940610 14.294100 -18.221100 11.325100 10.429000 -8.503200 2.000000 -2.000000 0.000000 -90.131798 -2.011760 -145.171997 65.635300 -0.271251 0.124592 -179.897003 -179.865997 -7.546660 -2.000000 2.000000 0.000000 86.180397 4.554720 -156.434998 -45.205502 0.311175 0.097023 -0.056377 0.025110 -145.925995 -17.950695 0.444718 -0.960118 26.285036 2.457712 2.123325 -6.871059 19.976723 3.720977 -19.699398 2.432381 2.837780 31.717087 -2.266082 -2.529439 -17.407991 -9.190981 -4.526171 
-0.426823 44.391560 -1.079762 9.677740 0.048133 -10.743700 -22.033600 2.014870 -1.689170 17.718800 3.667380 -0.523094 7.024350 14.298800 -18.231001 11.354600 10.418600 -8.518650 2.000000 -2.000000 0.000000 -90.092697 -2.040940 -145.113007 65.635300 -0.271251 0.124592 -179.897003 -179.865997 -7.566190 -2.000000 2.000000 0.000000 86.209702 4.544870 -156.395996 -45.293400 0.311026 0.097171 -0.056407 0.025299 -145.994003 -17.941801 0.472257 -0.982791 26.303692 2.464145 2.114669 -6.898352 19.958355 3.718505 -19.674110 2.465330 2.817247 31.717562 -2.264679 -2.538780 -17.440573 -9.226838 -4.560458 
-0.438668 44.389877 -1.056205 9.667970 0.019254 -10.690100 -22.053400 2.015780 -1.658860 17.728600 3.657660 -0.512223 7.169880 14.300200 -18.241100 11.413700 10.397700 -8.530050 2.000000 -2.000000 0.000000 -90.063301 -2.060380 -145.063995 65.625504 -0.271272 0.124582 -179.897003 -179.876007 -7.575970 -2.000000 2.000000 0.000000 86.229103 4.515410 -156.317993 -45.420399 0.310810 0.097384 -0.056433 0.025462 -146.052994 -17.922556 0.493300 -0.995846 26.333124 2.463853 2.114085 -6.948730 19.929010 3.724672 -19.620705 2.487123 2.800464 31.717695 -2.262624 -2.538222 -17.482464 -9.254723 -4.570714 
-0.450298 44.387821 -1.030266 9.648440 0.000000 -10.625000 -22.083099 2.034640 -1.636270 17.718800 3.667380 -0.493797 7.336280 14.300200 -18.254499 11.482700 10.376600 -8.549500 2.000000 -2.000000 0.000000 -90.063301 -2.040790 -145.035004 65.625504 -0.271272 0.124582 -179.897003 -179.865997 -7.566190 -2.000000 2.000000 0.000000 86.228996 4.485920 -156.229996 -45.557098 0.310578 0.097612 -0.056446 0.025542 -146.082001 -17.883181 0.510451 -1.000190 26.344280 2.457258 2.131895 -6.984809 19.861847 3.722962 -19.558826 2.498637 2.786011 31.727427 -2.263395 -2.538242 -17.541237 -9.288058 -4.595796 
-0.461175 44.385887 -1.002844 9.638670 -0.019256 -10.520900 -22.122400 2.040860 -1.619540 17.718800 3.677140 -0.484513 7.452810 14.311700 -18.282600 11.532000 10.365700 -8.571260 2.000000 -2.000000 0.000000 -90.063301 -1.991940 -145.024994 65.635300 -0.271251 0.124592 -179.897003 -179.865997 -7.546660 -2.000000 2.000000 0.000000 86.228897 4.446620 -156.123001 -45.693802 0.310345 0.097840 -0.056454 0.025596 -146.100998 -17.834253 0.519344 -1.004403 26.343536 2.461342 2.123079 -7.025193 19.793131 3.719819 -19.485109 2.510395 2.743066 31.727068 -2.269123 -2.539764 -17.600857 -9.338954 -4.630887 
-0.470933 44.383820 -0.974333 9.628910 -0.038512 -10.397200 -22.151600 2.031340 -1.617040 17.728600 3.657660 -0.482927 7.588200 14.333000 -18.283501 11.581700 10.364400 -8.591770 2.000000 -2.000000 0.000000 -90.063301 -1.943170 -145.054993 65.654800 -0.271209 0.124611 -179.897003 -179.865997 -7.546660 -2.000000 2.000000 0.000000 86.228798 4.456110 -155.996002 -45.830502 0.310111 0.098068 -0.056476 0.025731 -146.149994 -17.835377 0.532027 -1.024958 26.382202 2.467654 2.123773 -7.067444 19.710371 3.720501 -19.441185 2.510347 2.679741 31.716888 -2.269233 -2.530250 -17.629297 -9.400611 -4.680286 
-0.479137 44.381504 -0.945237 9.628910 -0.067396 -10.284900 -22.171000 2.021970 -1.614140 17.767799 3.638280 -0.479488 7.795780 14.359900 -18.280100 11.670700 10.352400 -8.595010 2.000000 -2.000000 0.000000 -90.063400 -1.914030 -145.132996 65.664597 -0.271188 0.124621 -179.897003 -179.865997 -7.536900 -2.000000 2.000000 0.000000 86.238403 4.475280 -155.830002 -45.967201 0.309877 0.098295 -0.056512 0.025947 -146.227997 -17.808823 0.540877 -1.066485 26.354000 2.458205 2.131942 -7.091683 19.646667 3.718656 -19.376781 2.525863 2.635478 31.717234 -2.263729 -2.528760 -17.670252 -9.482671 -4.731177 
-0.486198 44.378410 -0.916501 9.609390 -0.105915 -10.203500 -22.209900 2.017910 -1.624830 17.787399 3.618830 -0.487074 8.003770 14.396200 -18.275200 11.759800 10.340500 -8.600040 2.000000 -2.000000 0.000000 -90.092903 -1.865450 -145.259995 65.654800 -0.271209 0.124611 -179.897003 -179.876007 -7.517380 -2.000000 2.000000 0.000000 86.218697 4.465040 -155.615005 -46.113701 0.309625 0.098538 -0.056547 0.026163 -146.307007 -17.789352 0.567467 -1.080043 26.421412 2.467651 2.123084 -7.155929 19.605663 3.709855 -19.320879 2.550828 2.589868 31.717670 -2.263046 -2.538268 -17.713188 -9.523671 -4.758569 
-0.492388 44.374924 -0.888294 9.580110 -0.144442 -10.122100 -22.249201 2.026320 -1.630080 17.777700 3.618800 -0.487691 8.107220 14.409600 -18.267200 11.799700 10.349100 -8.611260 2.000000 -2.000000 0.000000 -90.141899 -1.797400 -145.416000 65.654800 -0.271209 0.124611 -179.897003 -179.876007 -7.478320 -2.000000 2.000000 0.000000 86.189102 4.454810 -155.399994 -46.260201 0.309373 0.098780 -0.056569 0.026298 -146.354996 -17.740728 0.590133 -1.095212 26.431526 2.468599 2.132839 -7.175586 19.562744 3.714902 -19.245594 2.568748 2.537127 31.726912 -2.271618 -2.540347 -17.754292 -9.538031 -4.750319 
-0.498477 44.371574 -0.860213 9.550830 -0.173345 -10.068300 -22.268700 2.026000 -1.630860 17.806999 3.609130 -0.485375 8.096040 14.400900 -18.261999 11.780100 10.359300 -8.613480 2.000000 -2.000000 0.000000 -90.171402 -1.758600 -145.552994 65.654800 -0.271209 0.124611 -179.897003 -179.876007 -7.458790 -2.000000 2.000000 0.000000 86.198700 4.473980 -155.233994 -46.387199 0.309154 0.098989 -0.056583 0.026379 -146.384995 -17.701488 0.599383 -1.098754 26.479765 2.473010 2.123216 -7.246024 19.519215 3.707247 -19.191847 2.577805 2.492755 31.765949 -2.267045 -2.528599 -17.797112 -9.579226 -4.777904 
-0.504547 44.368095 -0.832797 9.521540 -0.192622 -10.012800 -22.268600 2.009170 -1.592340 17.865900 3.570290 -0.470094 8.065570 14.392600 -18.275400 11.750100 10.350400 -8.629800 2.000000 -2.000000 0.000000 -90.152000 -1.758800 -145.651001 65.664597 -0.271188 0.124621 -179.897003 -179.876007 -7.449020 -2.000000 2.000000 0.000000 86.237701 4.542170 -155.156006 -46.494598 0.308968 0.099166 -0.056583 0.026379 -146.384995 -17.669668 0.613142 -1.073043 26.517958 2.484832 2.125155 -7.294178 19.466236 3.713386 -19.129152 2.589651 2.468695 31.785088 -2.273802 -2.530171 -17.839415 -9.598564 -4.804112 
